<svg width="55" height="20" viewBox="0 0 55 20" fill="none" xmlns="http://www.w3.org/2000/svg">
<path d="M9.34506 0.00538207C9.30205 0.00929157 9.1652 0.0229748 9.04203 0.0327485C6.20137 0.28882 3.54057 1.82134 1.85533 4.17681C0.916911 5.48649 0.316716 6.9721 0.0899316 8.54567C0.00977517 9.09496 0 9.2572 0 10.002C0 10.7467 0.00977517 10.909 0.0899316 11.4582C0.633431 15.2133 3.30596 18.3683 6.9306 19.5372C7.57967 19.7464 8.26393 19.8891 9.04203 19.9751C9.34506 20.0083 10.6549 20.0083 10.958 19.9751C12.3011 19.8265 13.4389 19.4942 14.5611 18.9215C14.7331 18.8335 14.7664 18.81 14.7429 18.7905C14.7273 18.7788 13.9941 17.7955 13.1144 16.607L11.5152 14.4471L9.51124 11.4817C8.4086 9.85144 7.50147 8.5183 7.49365 8.5183C7.48583 8.51635 7.47801 9.83385 7.4741 11.4426C7.46823 14.2594 7.46628 14.3728 7.43109 14.4392C7.38025 14.535 7.34115 14.5741 7.25904 14.6171C7.19648 14.6484 7.14174 14.6543 6.84653 14.6543H6.50831L6.41838 14.5976C6.35973 14.5604 6.31672 14.5116 6.28739 14.4549L6.24633 14.3669L6.25611 6.52642L6.31672 6.45018C6.348 6.40913 6.41447 6.35635 6.46139 6.33094C6.54154 6.29185 6.57283 6.28794 6.91105 6.28794C7.30987 6.28794 7.37634 6.30358 7.47996 6.41695C7.50929 6.44823 8.59433 8.0824 9.89247 10.0508C11.1906 12.0193 12.9658 14.707 13.8377 16.0265L15.4213 18.425L15.5015 18.3722C16.2111 17.9109 16.9619 17.2541 17.5562 16.5699C18.8211 15.1175 19.6364 13.3465 19.9101 11.4582C19.9902 10.909 20 10.7467 20 10.002C20 9.2572 19.9902 9.09496 19.9101 8.54567C19.3666 4.7906 16.694 1.63564 13.0694 0.466702C12.4301 0.259499 11.7498 0.116803 10.9873 0.0307938C10.7996 0.0112463 9.50733 -0.0102559 9.34506 0.00538207ZM13.4389 6.05337C13.5327 6.10028 13.609 6.1902 13.6364 6.28403C13.652 6.33485 13.6559 7.42169 13.652 9.87099L13.6461 13.3856L13.0264 12.4356L12.4047 11.4856V8.93076C12.4047 7.279 12.4125 6.35049 12.4242 6.30553C12.4555 6.19607 12.5239 6.11006 12.6178 6.05923C12.6979 6.01818 12.7273 6.01427 13.0342 6.01427C13.3236 6.01427 13.3744 6.01818 13.4389 6.05337Z" fill="white"/>
<path d="M20.5795 6.21023V5.27273H27.125V6.21023H24.3807V14H23.3239V6.21023H20.5795Z" fill="white"/>
<path d="M30.3295 14.1364C29.7386 14.1364 29.2202 13.9957 28.7741 13.7145C28.331 13.4332 27.9844 13.0398 27.7344 12.5341C27.4872 12.0284 27.3636 11.4375 27.3636 10.7614C27.3636 10.0795 27.4872 9.48437 27.7344 8.97585C27.9844 8.46733 28.331 8.07244 28.7741 7.79119C29.2202 7.50994 29.7386 7.36932 30.3295 7.36932C30.9205 7.36932 31.4375 7.50994 31.8807 7.79119C32.3267 8.07244 32.6733 8.46733 32.9205 8.97585C33.1705 9.48437 33.2955 10.0795 33.2955 10.7614C33.2955 11.4375 33.1705 12.0284 32.9205 12.5341C32.6733 13.0398 32.3267 13.4332 31.8807 13.7145C31.4375 13.9957 30.9205 14.1364 30.3295 14.1364ZM30.3295 13.233C30.7784 13.233 31.1477 13.1179 31.4375 12.8878C31.7273 12.6577 31.9418 12.3551 32.081 11.9801C32.2202 11.6051 32.2898 11.1989 32.2898 10.7614C32.2898 10.3239 32.2202 9.91619 32.081 9.53835C31.9418 9.16051 31.7273 8.85511 31.4375 8.62216C31.1477 8.3892 30.7784 8.27273 30.3295 8.27273C29.8807 8.27273 29.5114 8.3892 29.2216 8.62216C28.9318 8.85511 28.7173 9.16051 28.5781 9.53835C28.4389 9.91619 28.3693 10.3239 28.3693 10.7614C28.3693 11.1989 28.4389 11.6051 28.5781 11.9801C28.7173 12.3551 28.9318 12.6577 29.2216 12.8878C29.5114 13.1179 29.8807 13.233 30.3295 13.233Z" fill="white"/>
<path d="M37.3022 14.1364C36.7567 14.1364 36.2752 13.9986 35.8576 13.723C35.44 13.4446 35.1133 13.0526 34.8775 12.5469C34.6417 12.0384 34.5238 11.4375 34.5238 10.7443C34.5238 10.0568 34.6417 9.46023 34.8775 8.95455C35.1133 8.44886 35.4414 8.05824 35.8619 7.78267C36.2823 7.5071 36.7681 7.36932 37.3192 7.36932C37.7454 7.36932 38.082 7.44034 38.3292 7.58239C38.5792 7.72159 38.7695 7.88068 38.9002 8.05966C39.0337 8.2358 39.1374 8.38068 39.2113 8.49432H39.2965V5.27273H40.3022V14H39.3306V12.9943H39.2113C39.1374 13.1136 39.0323 13.2642 38.896 13.446C38.7596 13.625 38.565 13.7855 38.3121 13.9276C38.0593 14.0668 37.7227 14.1364 37.3022 14.1364ZM37.4386 13.233C37.842 13.233 38.1829 13.1278 38.4613 12.9176C38.7397 12.7045 38.9514 12.4105 39.0962 12.0355C39.2411 11.6577 39.3136 11.2216 39.3136 10.7273C39.3136 10.2386 39.2425 9.81108 39.1005 9.4446C38.9585 9.07528 38.7482 8.78835 38.4698 8.58381C38.1914 8.37642 37.8477 8.27273 37.4386 8.27273C37.0124 8.27273 36.6573 8.3821 36.3732 8.60085C36.092 8.81676 35.8803 9.1108 35.7383 9.48295C35.5991 9.85227 35.5295 10.267 35.5295 10.7273C35.5295 11.1932 35.6005 11.6165 35.7425 11.9972C35.8874 12.375 36.1005 12.6761 36.3817 12.9006C36.6658 13.1222 37.0181 13.233 37.4386 13.233Z" fill="white"/>
<path d="M44.9428 14.1364C44.3519 14.1364 43.8335 13.9957 43.3874 13.7145C42.9442 13.4332 42.5977 13.0398 42.3477 12.5341C42.1005 12.0284 41.9769 11.4375 41.9769 10.7614C41.9769 10.0795 42.1005 9.48437 42.3477 8.97585C42.5977 8.46733 42.9442 8.07244 43.3874 7.79119C43.8335 7.50994 44.3519 7.36932 44.9428 7.36932C45.5337 7.36932 46.0508 7.50994 46.494 7.79119C46.94 8.07244 47.2866 8.46733 47.5337 8.97585C47.7837 9.48437 47.9087 10.0795 47.9087 10.7614C47.9087 11.4375 47.7837 12.0284 47.5337 12.5341C47.2866 13.0398 46.94 13.4332 46.494 13.7145C46.0508 13.9957 45.5337 14.1364 44.9428 14.1364ZM44.9428 13.233C45.3917 13.233 45.761 13.1179 46.0508 12.8878C46.3406 12.6577 46.555 12.3551 46.6942 11.9801C46.8335 11.6051 46.9031 11.1989 46.9031 10.7614C46.9031 10.3239 46.8335 9.91619 46.6942 9.53835C46.555 9.16051 46.3406 8.85511 46.0508 8.62216C45.761 8.3892 45.3917 8.27273 44.9428 8.27273C44.494 8.27273 44.1246 8.3892 43.8349 8.62216C43.5451 8.85511 43.3306 9.16051 43.1914 9.53835C43.0522 9.91619 42.9826 10.3239 42.9826 10.7614C42.9826 11.1989 43.0522 11.6051 43.1914 11.9801C43.3306 12.3551 43.5451 12.6577 43.8349 12.8878C44.1246 13.1179 44.494 13.233 44.9428 13.233Z" fill="white"/>
<path d="M54.0803 8.92045L53.1768 9.17614C53.12 9.02557 53.0362 8.87926 52.9254 8.73722C52.8175 8.59233 52.6697 8.47301 52.4822 8.37926C52.2947 8.28551 52.0547 8.23864 51.7621 8.23864C51.3615 8.23864 51.0277 8.33097 50.7607 8.51562C50.4964 8.69744 50.3643 8.92898 50.3643 9.21023C50.3643 9.46023 50.4553 9.65767 50.6371 9.80256C50.8189 9.94744 51.103 10.0682 51.4893 10.1648L52.4609 10.4034C53.0462 10.5455 53.4822 10.7628 53.7692 11.0554C54.0561 11.3452 54.1996 11.7187 54.1996 12.1761C54.1996 12.5511 54.0916 12.8864 53.8757 13.1818C53.6626 13.4773 53.3643 13.7102 52.9808 13.8807C52.5973 14.0511 52.1513 14.1364 51.6428 14.1364C50.9751 14.1364 50.4226 13.9915 49.9851 13.7017C49.5476 13.4119 49.2706 12.9886 49.1541 12.4318L50.1087 12.1932C50.1996 12.5455 50.3714 12.8097 50.6243 12.9858C50.88 13.1619 51.2138 13.25 51.6257 13.25C52.0945 13.25 52.4666 13.1506 52.7422 12.9517C53.0206 12.75 53.1598 12.5085 53.1598 12.2273C53.1598 12 53.0803 11.8097 52.9212 11.6562C52.7621 11.5 52.5178 11.3835 52.1882 11.3068L51.0973 11.0511C50.4979 10.9091 50.0575 10.6889 49.7763 10.3906C49.4979 10.0895 49.3587 9.71307 49.3587 9.26136C49.3587 8.89205 49.4624 8.56534 49.6697 8.28125C49.88 7.99716 50.1655 7.77415 50.5263 7.61222C50.8899 7.45028 51.3018 7.36932 51.7621 7.36932C52.4098 7.36932 52.9183 7.51136 53.2876 7.79545C53.6598 8.07955 53.924 8.45455 54.0803 8.92045Z" fill="white"/>
</svg>
